<svg xmlns="http://www.w3.org/2000/svg" viewBox="0 0 187.23 216.03"><defs><style>.cls-1{fill:#8a441f;}.cls-2{fill:#e41e25;}.cls-3,.cls-6{fill:#231f20;}.cls-4{fill:#8b451f;}.cls-5{fill:#ed1c24;}.cls-6{stroke:#8a181a;stroke-miterlimit:10;}.cls-7{fill:#129f49;}</style></defs><g id="face_base" data-name="face base"><path class="cls-1" d="M307,275c-14.74,8.28-20.66,21.71-23,27-2.58,5.86-4.27,9.67-4,15,.3,6.09,2.94,9.83,1,12-2.42,2.7-8-1.42-11,1-5.37,4.36,4,25,4,25s-2.57-8.1-3-8,3.73,11.9,5,28c.37,4.71.36,8.07,2,13,.9,2.71,2.6,5.81,6,12,4.66,8.49,6.09,10.08,7,11,2.26,2.3,4.38,3.67,8,6a75.87,75.87,0,0,0,9,5c3.27,1.51,5.9,2.42,15,5,9.26,2.63,13.88,3.94,15,4,3.72.19,3.91-.5,19-4,9.59-2.22,11-2.29,14-4s5.41-4.19,10-9a80.26,80.26,0,0,0,10-12,56.94,56.94,0,0,0,7-14c1.57-4.88,1.38-7.24,1-33-.12-8.07-.14-10.84,0-15,.29-8.25,1-16,1-16,.81-8.82,1.35-10,1-14a39,39,0,0,0-3-12c-3.52-8.1-9.06-12.71-13-16a50,50,0,0,0-15-9c-2.41-.9-5.13-1.67-20-3-13.29-1.19-20-1.77-25-1A51.79,51.79,0,0,0,307,275Z" transform="translate(-246.9 -215)"/></g><g id="right_eye" data-name="right eye"><path class="cls-2" d="M372.15,330.16l6.24-.07a5.51,5.51,0,0,1,2.08.25,4.36,4.36,0,0,1,1.34,1l4.19,4.15c.44.44.92,1,.63,1.54s-.94.59-1.54.68c-5.24.73-10.53,1.23-15.83,1.5C357.33,339.8,363.67,330.26,372.15,330.16Z" transform="translate(-246.9 -215)"/></g><g id="beard_base" data-name="beard base"><path class="cls-3" d="M279,355c.24,0,.73,4.69,1.7,14.08.18,1.73.3,2.92.3,2.92.84,8.54.56,8.22.95,10.12A42.24,42.24,0,0,0,285,391h0s1.39,1.41,14,6c3.76-.3,8.63-1.36,12-5,4.4-4.75,2.54-9.9,7-15,2.52-2.88,6-3.92,13-6,9.56-2.85,15.92-4.74,24-3,3,.65,10.82,2.34,16,9,2.74,3.53,3.7,7.1,5,12,2.37,8.9-.07,14.13,2,15,2.6,1.09,7.95-6.18,9.67-8.52A35.79,35.79,0,0,0,393,385c.13-.43.25-.86.49-1.72,1.24-4.51,1.89-8,2.51-11.28,1.8-9.69,1.79-10,2-10,1.59-.12,8.88,16.11,3,32-2.05,5.53-7.81,10.64-19,21-3.81,3.53-6.79,5.95-11,8-3.15,1.53-6.81,2.38-14,4-11.74,2.65-17.64,4-19,4-3.22.05-11.06.18-19-4-3.26-1.72-4-4.34-7.27-4.95-4.23-.78-6.26,2.06-9.73.95-2.8-.9-3.61-3.43-6-7-4.18-6.25-9.15-8.07-11-11C273.77,387.16,278.05,355,279,355Z" transform="translate(-246.9 -215)"/></g><g id="mouth_base" data-name="mouth base"><path class="cls-4" d="M319.75,387.63c-.89,2.49-.73,4.69-.46,8.24a15.62,15.62,0,0,0,1.37,6.3,10.57,10.57,0,0,0,3.67,4.36c.43.28,1.13.67,4.59,1.46,2.88.65,4.59.88,7.79,1.45,3.51.63,2.89.61,5.05,1a82.69,82.69,0,0,0,9.17,1,22.57,22.57,0,0,0,5.5,0,13.37,13.37,0,0,0,6.42-3.88,19.64,19.64,0,0,0,4.59-7.75c1.33-3.66,3.71-10.23.92-16-1.64-3.37-4.56-5.45-6.42-6.78s-2.21-1.18-6.42-3.88c-2.72-1.74-3-2.1-4.13-2.42-1.55-.46-3-.34-7.34,1-4.83,1.45-7.24,2.17-10.55,3.88a38.8,38.8,0,0,0-6.88,4.36C323.06,382.71,320.88,384.45,319.75,387.63Z" transform="translate(-246.9 -215)"/></g><g id="left-eye"><path class="cls-5" d="M317.13,326a29.2,29.2,0,0,1,7.42.52,9.76,9.76,0,0,1,6.05,4c-3.66-.29-7,1.86-10.54,2.91-2.83.85-12.21,1.77-13.92-1.74C303.76,326.86,314.16,326,317.13,326Z" transform="translate(-246.9 -215)"/></g><g id="Eyebrows"><path class="cls-6" d="M302.34,314a18.05,18.05,0,0,1,7.08-1.58c8.31-.45,16.5,1.76,24.59,3.73a5.1,5.1,0,0,0,3,.11,1.77,1.77,0,0,0,1.05-2.43,2.47,2.47,0,0,0-1.18-.79,57.9,57.9,0,0,0-10.62-3.49,75.22,75.22,0,0,0-8.48-1l-12-1a3.78,3.78,0,0,0-4,1.58l-4.35,4.69a4.79,4.79,0,0,0-1.62,2.85C295.56,320.84,301.07,314.59,302.34,314Z" transform="translate(-246.9 -215)"/><path class="cls-6" d="M370.3,322.22c1-.1,1.61-1.17,2.39-1.84,1.24-1.05,3-1.09,4.63-1.08l8.33.07a3,3,0,0,1,1.55.28,3.73,3.73,0,0,1,1,1.22,10.47,10.47,0,0,0,5.18,4.07c1.05-1.59.3-3.85-1.13-5.09a12,12,0,0,0-5.2-2.2l-1.54-.37c-3.64-.89-11.64-3.71-15.21-1.59C368.59,316.73,366.45,322.57,370.3,322.22Z" transform="translate(-246.9 -215)"/></g><g id="hair"><path class="cls-3" d="M318.37,322.57c1.22-.44-15.42-43-8.71-46.77,4-2.23,15.4,9.88,16.51,8.71.85-.91-7-7-5.51-11,1.92-5.24,19.85-7.47,28,.46C359,284,351,308.09,351.54,308.17S356.9,271,361,271c3.18,0,5.82,26.13,7,26s-1.69-23.1,2-24c3.13-.76,7.83,15.21,19,27a27,27,0,0,1,4,5c4,6.6,1.26,10.45,5,15,1.24,1.51,6.69,8.15,13,7,2.53-.46,6.89-2.48,7.58-4.84.11-.38.44-1.85,1.42-2.16a1.53,1.53,0,0,1,.7,0c1.94.38,8,10.14,8.3,10s-2.55-14.19-8.16-21.84A3.08,3.08,0,0,1,420,306c.46-4,12.65-3.25,14-8,1.08-3.78-5-10-5-10l-13-13s-2.07-12.45-9-23a42.23,42.23,0,0,0-9-10,34.87,34.87,0,0,0-14-7c-7.29-1.65-8.44.92-16-1-5.91-1.5-5.52-3.15-11-4a54.24,54.24,0,0,0-13,0l-3.26-5.44-.53-.88c-3.38-5.64-4.27-8.77-5.21-8.68-1.48.13.46,7.92-4,13-2.49,2.84-4,1.4-10,5a58.3,58.3,0,0,0-12,10s-14.09-4.49-14-9c.05-2.33,3.87-4.05,5.52-4.79C305.34,227,310,227.8,310,228c0,.44-23.93-1.77-26,5-1,3.19,2.65,9.19,6.45,12.56,1.33,1.18,2.73,2.07,2.55,2.44-.47,1-9.94-5.7-19-3-1,.29-6,1.78-8,6-1.76,3.64.52,5.53-1,10a8.19,8.19,0,0,1-1.09,2.2,14.56,14.56,0,0,1-3.64,3.58c-4.53,3.05-3.66,22.18-2.7,22.19s-.47-13.67,5.31-15.93a5.68,5.68,0,0,1,3.67,0c4.89,2.51,6,4.51,6,6-.19,5.21-15.49,5.93-17.51,14-1.27,5.05,3.51,9.81,2,11-2,1.57-9.1-5.86-10-5s5.27,12.91,17,17a17.19,17.19,0,0,0,10,1c3.56-.85,5.76-2.91,10-7s7.42-7,10-12c3.51-6.78,2.52-10.76,4.19-11.2C303.36,285.46,317.22,323,318.37,322.57Z" transform="translate(-246.9 -215)"/><path class="cls-7" d="M677,374" transform="translate(-246.9 -215)"/><path class="cls-7" d="M571.06,386.78" transform="translate(-246.9 -215)"/><path class="cls-7" d="M515.11,294.6" transform="translate(-246.9 -215)"/><path class="cls-7" d="M503.18,304.23" transform="translate(-246.9 -215)"/><path class="cls-7" d="M511,289.55" transform="translate(-246.9 -215)"/></g></svg>