<svg id="visual" viewBox="0 0 1920 925" width="1920" height="925" xmlns="http://www.w3.org/2000/svg" xmlns:xlink="http://www.w3.org/1999/xlink" version="1.1"><rect x="0" y="0" width="1920" height="925" fill="#001220"></rect><path d="M0 301L29.2 290.3C58.3 279.7 116.7 258.3 174.8 243.8C233 229.3 291 221.7 349.2 231.7C407.3 241.7 465.7 269.3 523.8 268.5C582 267.7 640 238.3 698.2 227.8C756.3 217.3 814.7 225.7 872.8 240.3C931 255 989 276 1047.2 279.3C1105.3 282.7 1163.7 268.3 1221.8 267.8C1280 267.3 1338 280.7 1396.2 289.7C1454.3 298.7 1512.7 303.3 1570.8 309.5C1629 315.7 1687 323.3 1745.2 315.3C1803.3 307.3 1861.7 283.7 1890.8 271.8L1920 260L1920 0L1890.8 0C1861.7 0 1803.3 0 1745.2 0C1687 0 1629 0 1570.8 0C1512.7 0 1454.3 0 1396.2 0C1338 0 1280 0 1221.8 0C1163.7 0 1105.3 0 1047.2 0C989 0 931 0 872.8 0C814.7 0 756.3 0 698.2 0C640 0 582 0 523.8 0C465.7 0 407.3 0 349.2 0C291 0 233 0 174.8 0C116.7 0 58.3 0 29.2 0L0 0Z" fill="#0d1613"></path><path d="M0 256L29.2 253.2C58.3 250.3 116.7 244.7 174.8 237C233 229.3 291 219.7 349.2 224.7C407.3 229.7 465.7 249.3 523.8 265C582 280.7 640 292.3 698.2 286.8C756.3 281.3 814.7 258.7 872.8 238.8C931 219 989 202 1047.2 208.5C1105.3 215 1163.7 245 1221.8 252.8C1280 260.7 1338 246.3 1396.2 237.7C1454.3 229 1512.7 226 1570.8 236C1629 246 1687 269 1745.2 277C1803.3 285 1861.7 278 1890.8 274.5L1920 271L1920 0L1890.8 0C1861.7 0 1803.3 0 1745.2 0C1687 0 1629 0 1570.8 0C1512.7 0 1454.3 0 1396.2 0C1338 0 1280 0 1221.8 0C1163.7 0 1105.3 0 1047.2 0C989 0 931 0 872.8 0C814.7 0 756.3 0 698.2 0C640 0 582 0 523.8 0C465.7 0 407.3 0 349.2 0C291 0 233 0 174.8 0C116.7 0 58.3 0 29.2 0L0 0Z" fill="#131d1a"></path><path d="M0 205L29.2 205.3C58.3 205.7 116.7 206.3 174.8 211.5C233 216.7 291 226.3 349.2 230.8C407.3 235.3 465.7 234.7 523.8 226C582 217.3 640 200.7 698.2 194.3C756.3 188 814.7 192 872.8 202.7C931 213.3 989 230.7 1047.2 228.2C1105.3 225.7 1163.7 203.3 1221.8 195C1280 186.7 1338 192.3 1396.2 190C1454.3 187.7 1512.7 177.3 1570.8 180.3C1629 183.3 1687 199.7 1745.2 204.3C1803.3 209 1861.7 202 1890.8 198.5L1920 195L1920 0L1890.8 0C1861.7 0 1803.3 0 1745.2 0C1687 0 1629 0 1570.8 0C1512.7 0 1454.3 0 1396.2 0C1338 0 1280 0 1221.8 0C1163.7 0 1105.3 0 1047.2 0C989 0 931 0 872.8 0C814.7 0 756.3 0 698.2 0C640 0 582 0 523.8 0C465.7 0 407.3 0 349.2 0C291 0 233 0 174.8 0C116.7 0 58.3 0 29.2 0L0 0Z" fill="#162522"></path><path d="M0 150L29.2 163.3C58.3 176.7 116.7 203.3 174.8 216C233 228.7 291 227.3 349.2 218.7C407.3 210 465.7 194 523.8 188.3C582 182.7 640 187.3 698.2 190.7C756.3 194 814.7 196 872.8 191.5C931 187 989 176 1047.2 171C1105.3 166 1163.7 167 1221.8 178.3C1280 189.7 1338 211.3 1396.2 212.5C1454.3 213.7 1512.7 194.3 1570.8 186C1629 177.7 1687 180.3 1745.2 177.2C1803.3 174 1861.7 165 1890.8 160.5L1920 156L1920 0L1890.8 0C1861.7 0 1803.3 0 1745.2 0C1687 0 1629 0 1570.8 0C1512.7 0 1454.3 0 1396.2 0C1338 0 1280 0 1221.8 0C1163.7 0 1105.3 0 1047.2 0C989 0 931 0 872.8 0C814.7 0 756.3 0 698.2 0C640 0 582 0 523.8 0C465.7 0 407.3 0 349.2 0C291 0 233 0 174.8 0C116.7 0 58.3 0 29.2 0L0 0Z" fill="#1a2d2a"></path><path d="M0 186L29.2 187.2C58.3 188.3 116.7 190.7 174.8 187.3C233 184 291 175 349.2 170.3C407.3 165.7 465.7 165.3 523.8 161.8C582 158.3 640 151.7 698.2 144.3C756.3 137 814.7 129 872.8 133.5C931 138 989 155 1047.2 167.7C1105.3 180.3 1163.7 188.7 1221.8 189.7C1280 190.7 1338 184.3 1396.2 173.5C1454.3 162.7 1512.7 147.3 1570.8 139C1629 130.7 1687 129.3 1745.2 127.2C1803.3 125 1861.7 122 1890.8 120.5L1920 119L1920 0L1890.8 0C1861.7 0 1803.3 0 1745.2 0C1687 0 1629 0 1570.8 0C1512.7 0 1454.3 0 1396.2 0C1338 0 1280 0 1221.8 0C1163.7 0 1105.3 0 1047.2 0C989 0 931 0 872.8 0C814.7 0 756.3 0 698.2 0C640 0 582 0 523.8 0C465.7 0 407.3 0 349.2 0C291 0 233 0 174.8 0C116.7 0 58.3 0 29.2 0L0 0Z" fill="#1d3532"></path><path d="M0 123L29.2 123.5C58.3 124 116.7 125 174.8 119.7C233 114.3 291 102.7 349.2 102.7C407.3 102.7 465.7 114.3 523.8 124.7C582 135 640 144 698.2 148.5C756.3 153 814.7 153 872.8 153.7C931 154.3 989 155.7 1047.2 149C1105.3 142.3 1163.7 127.7 1221.8 127.3C1280 127 1338 141 1396.2 136.7C1454.3 132.3 1512.7 109.7 1570.8 102.2C1629 94.7 1687 102.3 1745.2 113C1803.3 123.7 1861.7 137.3 1890.8 144.2L1920 151L1920 0L1890.8 0C1861.7 0 1803.3 0 1745.2 0C1687 0 1629 0 1570.8 0C1512.7 0 1454.3 0 1396.2 0C1338 0 1280 0 1221.8 0C1163.7 0 1105.3 0 1047.2 0C989 0 931 0 872.8 0C814.7 0 756.3 0 698.2 0C640 0 582 0 523.8 0C465.7 0 407.3 0 349.2 0C291 0 233 0 174.8 0C116.7 0 58.3 0 29.2 0L0 0Z" fill="#203d3b"></path><path d="M0 103L29.2 104.8C58.3 106.7 116.7 110.3 174.8 113C233 115.7 291 117.3 349.2 112.5C407.3 107.7 465.7 96.3 523.8 91.5C582 86.7 640 88.3 698.2 93C756.3 97.7 814.7 105.3 872.8 105.3C931 105.3 989 97.7 1047.2 97C1105.3 96.3 1163.7 102.7 1221.8 104.3C1280 106 1338 103 1396.2 98.7C1454.3 94.3 1512.7 88.7 1570.8 90C1629 91.3 1687 99.7 1745.2 100.2C1803.3 100.7 1861.7 93.3 1890.8 89.7L1920 86L1920 0L1890.8 0C1861.7 0 1803.3 0 1745.2 0C1687 0 1629 0 1570.8 0C1512.7 0 1454.3 0 1396.2 0C1338 0 1280 0 1221.8 0C1163.7 0 1105.3 0 1047.2 0C989 0 931 0 872.8 0C814.7 0 756.3 0 698.2 0C640 0 582 0 523.8 0C465.7 0 407.3 0 349.2 0C291 0 233 0 174.8 0C116.7 0 58.3 0 29.2 0L0 0Z" fill="#234545"></path><path d="M0 66L29.2 62.5C58.3 59 116.7 52 174.8 51.5C233 51 291 57 349.2 63.2C407.3 69.3 465.7 75.7 523.8 72.3C582 69 640 56 698.2 54.3C756.3 52.7 814.7 62.3 872.8 61.3C931 60.3 989 48.7 1047.2 44.2C1105.3 39.7 1163.7 42.3 1221.8 42.2C1280 42 1338 39 1396.2 42.3C1454.3 45.7 1512.7 55.3 1570.8 59.8C1629 64.3 1687 63.7 1745.2 60.2C1803.3 56.7 1861.7 50.3 1890.8 47.2L1920 44L1920 0L1890.8 0C1861.7 0 1803.3 0 1745.2 0C1687 0 1629 0 1570.8 0C1512.7 0 1454.3 0 1396.2 0C1338 0 1280 0 1221.8 0C1163.7 0 1105.3 0 1047.2 0C989 0 931 0 872.8 0C814.7 0 756.3 0 698.2 0C640 0 582 0 523.8 0C465.7 0 407.3 0 349.2 0C291 0 233 0 174.8 0C116.7 0 58.3 0 29.2 0L0 0Z" fill="#264e4f"></path><path d="M0 32L29.2 34.5C58.3 37 116.7 42 174.8 39C233 36 291 25 349.2 20C407.3 15 465.7 16 523.8 15.3C582 14.7 640 12.3 698.2 19.7C756.3 27 814.7 44 872.8 51.8C931 59.7 989 58.3 1047.2 57.2C1105.3 56 1163.7 55 1221.8 55.5C1280 56 1338 58 1396.2 55.7C1454.3 53.3 1512.7 46.7 1570.8 41.3C1629 36 1687 32 1745.2 28.5C1803.3 25 1861.7 22 1890.8 20.5L1920 19L1920 0L1890.8 0C1861.7 0 1803.3 0 1745.2 0C1687 0 1629 0 1570.8 0C1512.7 0 1454.3 0 1396.2 0C1338 0 1280 0 1221.8 0C1163.7 0 1105.3 0 1047.2 0C989 0 931 0 872.8 0C814.7 0 756.3 0 698.2 0C640 0 582 0 523.8 0C465.7 0 407.3 0 349.2 0C291 0 233 0 174.8 0C116.7 0 58.3 0 29.2 0L0 0Z" fill="#29565a"></path></svg>