<svg id="visual" viewBox="0 0 1920 925" width="1920" height="925" xmlns="http://www.w3.org/2000/svg" xmlns:xlink="http://www.w3.org/1999/xlink" version="1.1"><path d="M0 121L175 121L175 103L349 103L349 94L524 94L524 149L698 149L698 103L873 103L873 121L1047 121L1047 149L1222 149L1222 112L1396 112L1396 66L1571 66L1571 103L1745 103L1745 121L1920 121L1920 140L1920 0L1920 0L1745 0L1745 0L1571 0L1571 0L1396 0L1396 0L1222 0L1222 0L1047 0L1047 0L873 0L873 0L698 0L698 0L524 0L524 0L349 0L349 0L175 0L175 0L0 0Z" fill="#001220"></path><path d="M0 390L175 390L175 510L349 510L349 316L524 316L524 316L698 316L698 306L873 306L873 353L1047 353L1047 371L1222 371L1222 325L1396 325L1396 417L1571 417L1571 427L1745 427L1745 251L1920 251L1920 306L1920 138L1920 119L1745 119L1745 101L1571 101L1571 64L1396 64L1396 110L1222 110L1222 147L1047 147L1047 119L873 119L873 101L698 101L698 147L524 147L524 92L349 92L349 101L175 101L175 119L0 119Z" fill="#000f1e"></path><path d="M0 473L175 473L175 593L349 593L349 473L524 473L524 528L698 528L698 417L873 417L873 473L1047 473L1047 464L1222 464L1222 519L1396 519L1396 658L1571 658L1571 510L1745 510L1745 473L1920 473L1920 473L1920 304L1920 249L1745 249L1745 425L1571 425L1571 415L1396 415L1396 323L1222 323L1222 369L1047 369L1047 351L873 351L873 304L698 304L698 314L524 314L524 314L349 314L349 508L175 508L175 388L0 388Z" fill="#000b1b"></path><path d="M0 778L175 778L175 769L349 769L349 787L524 787L524 778L698 778L698 769L873 769L873 760L1047 760L1047 760L1222 760L1222 787L1396 787L1396 806L1571 806L1571 806L1745 806L1745 815L1920 815L1920 834L1920 471L1920 471L1745 471L1745 508L1571 508L1571 656L1396 656L1396 517L1222 517L1222 462L1047 462L1047 471L873 471L873 415L698 415L698 526L524 526L524 471L349 471L349 591L175 591L175 471L0 471Z" fill="#000618"></path><path d="M0 926L175 926L175 926L349 926L349 926L524 926L524 926L698 926L698 926L873 926L873 926L1047 926L1047 926L1222 926L1222 926L1396 926L1396 926L1571 926L1571 926L1745 926L1745 926L1920 926L1920 926L1920 832L1920 813L1745 813L1745 804L1571 804L1571 804L1396 804L1396 785L1222 785L1222 758L1047 758L1047 758L873 758L873 767L698 767L698 776L524 776L524 785L349 785L349 767L175 767L175 776L0 776Z" fill="#000000"></path></svg>