<svg id="visual" viewBox="0 0 960 540" width="960" height="540" xmlns="http://www.w3.org/2000/svg" xmlns:xlink="http://www.w3.org/1999/xlink" version="1.1"><g stroke-width="1" stroke-linejoin="bevel"><path d="M563.3 301L551.3 375L664 361Z" fill="#7e004d" stroke="#FFFFFF"></path><path d="M664 361L630 240L563.3 301Z" fill="#65074d" stroke="#FFFFFF"></path><path d="M551.3 375L601 480L664 361Z" fill="#960049" stroke="#FFFFFF"></path><path d="M549.3 461L601 480L551.3 375Z" fill="#1b0d38" stroke="#FFFFFF"></path><path d="M718.7 483L743.7 393L664 361Z" fill="#1b0d38" stroke="#FFFFFF"></path><path d="M664 361L765.7 279L630 240Z" fill="#07032c" stroke="#FFFFFF"></path><path d="M743.7 393L765.7 279L664 361Z" fill="#7e004d" stroke="#FFFFFF"></path><path d="M601 480L718.7 483L664 361Z" fill="#ac0040" stroke="#FFFFFF"></path><path d="M523.3 540L611 540L601 480Z" fill="#960049" stroke="#FFFFFF"></path><path d="M601 480L611 540L718.7 483Z" fill="#1b0d38" stroke="#FFFFFF"></path><path d="M630 240L547.3 157L563.3 301Z" fill="#960049" stroke="#FFFFFF"></path><path d="M563.3 301L405.7 350L551.3 375Z" fill="#ac0040" stroke="#FFFFFF"></path><path d="M551.3 375L411.7 432L549.3 461Z" fill="#07032c" stroke="#FFFFFF"></path><path d="M675 152L547.3 157L630 240Z" fill="#ac0040" stroke="#FFFFFF"></path><path d="M389.7 268L405.7 350L563.3 301Z" fill="#da0d00" stroke="#FFFFFF"></path><path d="M549.3 461L523.3 540L601 480Z" fill="#960049" stroke="#FFFFFF"></path><path d="M731.7 151L675 152L630 240Z" fill="#4c0d49" stroke="#FFFFFF"></path><path d="M461.7 540L523.3 540L549.3 461Z" fill="#da0d00" stroke="#FFFFFF"></path><path d="M405.7 350L411.7 432L551.3 375Z" fill="#4c0d49" stroke="#FFFFFF"></path><path d="M828.3 388L818.3 291L743.7 393Z" fill="#330f42" stroke="#FFFFFF"></path><path d="M743.7 393L818.3 291L765.7 279Z" fill="#4c0d49" stroke="#FFFFFF"></path><path d="M765.7 279L731.7 151L630 240Z" fill="#4c0d49" stroke="#FFFFFF"></path><path d="M718.7 483L828.3 388L743.7 393Z" fill="#cf0022" stroke="#FFFFFF"></path><path d="M418.7 188L389.7 268L563.3 301Z" fill="#65074d" stroke="#FFFFFF"></path><path d="M405.7 350L349 389L411.7 432Z" fill="#1b0d38" stroke="#FFFFFF"></path><path d="M834.3 171L731.7 151L765.7 279Z" fill="#960049" stroke="#FFFFFF"></path><path d="M611 540L734.7 540L718.7 483Z" fill="#4c0d49" stroke="#FFFFFF"></path><path d="M823.3 540L873.3 434L828.3 388Z" fill="#65074d" stroke="#FFFFFF"></path><path d="M411.7 432L461.7 540L549.3 461Z" fill="#07032c" stroke="#FFFFFF"></path><path d="M547.3 157L418.7 188L563.3 301Z" fill="#4c0d49" stroke="#FFFFFF"></path><path d="M303 288L349 389L405.7 350Z" fill="#7e004d" stroke="#FFFFFF"></path><path d="M411.7 432L359 440L461.7 540Z" fill="#ac0040" stroke="#FFFFFF"></path><path d="M349 389L359 440L411.7 432Z" fill="#1b0d38" stroke="#FFFFFF"></path><path d="M757.7 59L633 76L675 152Z" fill="#330f42" stroke="#FFFFFF"></path><path d="M675 152L633 76L547.3 157Z" fill="#7e004d" stroke="#FFFFFF"></path><path d="M547.3 157L424.7 111L418.7 188Z" fill="#4c0d49" stroke="#FFFFFF"></path><path d="M633 76L519.3 81L547.3 157Z" fill="#bf0033" stroke="#FFFFFF"></path><path d="M823.3 540L828.3 388L718.7 483Z" fill="#4c0d49" stroke="#FFFFFF"></path><path d="M828.3 388L960 376L818.3 291Z" fill="#ac0040" stroke="#FFFFFF"></path><path d="M818.3 291L834.3 171L765.7 279Z" fill="#da0d00" stroke="#FFFFFF"></path><path d="M731.7 151L757.7 59L675 152Z" fill="#960049" stroke="#FFFFFF"></path><path d="M960 280L834.3 171L818.3 291Z" fill="#4c0d49" stroke="#FFFFFF"></path><path d="M734.7 540L823.3 540L718.7 483Z" fill="#960049" stroke="#FFFFFF"></path><path d="M519.3 81L424.7 111L547.3 157Z" fill="#1b0d38" stroke="#FFFFFF"></path><path d="M337 160L303 288L389.7 268Z" fill="#da0d00" stroke="#FFFFFF"></path><path d="M389.7 268L303 288L405.7 350Z" fill="#07032c" stroke="#FFFFFF"></path><path d="M337 160L389.7 268L418.7 188Z" fill="#7e004d" stroke="#FFFFFF"></path><path d="M189.3 488L324 540L359 440Z" fill="#da0d00" stroke="#FFFFFF"></path><path d="M834.3 171L757.7 59L731.7 151Z" fill="#960049" stroke="#FFFFFF"></path><path d="M633 76L606 0L519.3 81Z" fill="#65074d" stroke="#FFFFFF"></path><path d="M424.7 111L337 160L418.7 188Z" fill="#960049" stroke="#FFFFFF"></path><path d="M189.3 488L359 440L349 389Z" fill="#1b0d38" stroke="#FFFFFF"></path><path d="M359 440L324 540L461.7 540Z" fill="#4c0d49" stroke="#FFFFFF"></path><path d="M757.7 0L606 0L633 76Z" fill="#7e004d" stroke="#FFFFFF"></path><path d="M519.3 81L439.7 0L424.7 111Z" fill="#cf0022" stroke="#FFFFFF"></path><path d="M424.7 111L345 63L337 160Z" fill="#960049" stroke="#FFFFFF"></path><path d="M960 475L960 376L873.3 434Z" fill="#65074d" stroke="#FFFFFF"></path><path d="M873.3 434L960 376L828.3 388Z" fill="#da0d00" stroke="#FFFFFF"></path><path d="M960 376L960 280L818.3 291Z" fill="#960049" stroke="#FFFFFF"></path><path d="M834.3 171L815.3 52L757.7 59Z" fill="#bf0033" stroke="#FFFFFF"></path><path d="M606 0L500.3 0L519.3 81Z" fill="#cf0022" stroke="#FFFFFF"></path><path d="M960 102L815.3 52L834.3 171Z" fill="#330f42" stroke="#FFFFFF"></path><path d="M757.7 59L757.7 0L633 76Z" fill="#cf0022" stroke="#FFFFFF"></path><path d="M337 160L250.3 235L303 288Z" fill="#330f42" stroke="#FFFFFF"></path><path d="M303 288L197.3 327L349 389Z" fill="#330f42" stroke="#FFFFFF"></path><path d="M223.3 141L250.3 235L337 160Z" fill="#ac0040" stroke="#FFFFFF"></path><path d="M823.3 540L960 475L873.3 434Z" fill="#bf0033" stroke="#FFFFFF"></path><path d="M815.3 52L757.7 0L757.7 59Z" fill="#cf0022" stroke="#FFFFFF"></path><path d="M500.3 0L439.7 0L519.3 81Z" fill="#7e004d" stroke="#FFFFFF"></path><path d="M439.7 0L345 63L424.7 111Z" fill="#65074d" stroke="#FFFFFF"></path><path d="M960 280L960 179L834.3 171Z" fill="#1b0d38" stroke="#FFFFFF"></path><path d="M815.3 52L864.3 0L757.7 0Z" fill="#cf0022" stroke="#FFFFFF"></path><path d="M823.3 540L960 540L960 475Z" fill="#07032c" stroke="#FFFFFF"></path><path d="M100.7 241L197.3 327L250.3 235Z" fill="#bf0033" stroke="#FFFFFF"></path><path d="M250.3 235L197.3 327L303 288Z" fill="#65074d" stroke="#FFFFFF"></path><path d="M960 179L960 102L834.3 171Z" fill="#07032c" stroke="#FFFFFF"></path><path d="M960 102L864.3 0L815.3 52Z" fill="#330f42" stroke="#FFFFFF"></path><path d="M243.3 61L223.3 141L337 160Z" fill="#1b0d38" stroke="#FFFFFF"></path><path d="M243.3 61L337 160L345 63Z" fill="#cf0022" stroke="#FFFFFF"></path><path d="M197.3 327L189.3 488L349 389Z" fill="#65074d" stroke="#FFFFFF"></path><path d="M189.3 488L210.3 540L324 540Z" fill="#07032c" stroke="#FFFFFF"></path><path d="M439.7 0L318 0L345 63Z" fill="#330f42" stroke="#FFFFFF"></path><path d="M318 0L243.3 61L345 63Z" fill="#da0d00" stroke="#FFFFFF"></path><path d="M197.3 327L124.7 388L189.3 488Z" fill="#07032c" stroke="#FFFFFF"></path><path d="M189.3 488L136.7 540L210.3 540Z" fill="#07032c" stroke="#FFFFFF"></path><path d="M100.7 241L124.7 388L197.3 327Z" fill="#65074d" stroke="#FFFFFF"></path><path d="M100.7 241L250.3 235L96.7 188Z" fill="#330f42" stroke="#FFFFFF"></path><path d="M960 102L960 0L864.3 0Z" fill="#1b0d38" stroke="#FFFFFF"></path><path d="M73.7 463L136.7 540L189.3 488Z" fill="#da0d00" stroke="#FFFFFF"></path><path d="M96.7 188L250.3 235L223.3 141Z" fill="#da0d00" stroke="#FFFFFF"></path><path d="M124.7 388L73.7 463L189.3 488Z" fill="#1b0d38" stroke="#FFFFFF"></path><path d="M99.7 55L96.7 188L223.3 141Z" fill="#7e004d" stroke="#FFFFFF"></path><path d="M318 0L186.3 0L243.3 61Z" fill="#7e004d" stroke="#FFFFFF"></path><path d="M243.3 61L99.7 55L223.3 141Z" fill="#07032c" stroke="#FFFFFF"></path><path d="M0 339L124.7 388L100.7 241Z" fill="#1b0d38" stroke="#FFFFFF"></path><path d="M0 418L73.7 463L124.7 388Z" fill="#330f42" stroke="#FFFFFF"></path><path d="M186.3 0L99.7 55L243.3 61Z" fill="#960049" stroke="#FFFFFF"></path><path d="M0 246L0 339L100.7 241Z" fill="#65074d" stroke="#FFFFFF"></path><path d="M0 246L100.7 241L0 214Z" fill="#bf0033" stroke="#FFFFFF"></path><path d="M186.3 0L107.7 0L99.7 55Z" fill="#ac0040" stroke="#FFFFFF"></path><path d="M0 214L100.7 241L96.7 188Z" fill="#4c0d49" stroke="#FFFFFF"></path><path d="M0 339L0 418L124.7 388Z" fill="#07032c" stroke="#FFFFFF"></path><path d="M73.7 463L0 540L136.7 540Z" fill="#bf0033" stroke="#FFFFFF"></path><path d="M0 214L96.7 188L0 92Z" fill="#960049" stroke="#FFFFFF"></path><path d="M0 92L96.7 188L99.7 55Z" fill="#960049" stroke="#FFFFFF"></path><path d="M0 418L0 540L73.7 463Z" fill="#4c0d49" stroke="#FFFFFF"></path><path d="M0 0L0 92L99.7 55Z" fill="#960049" stroke="#FFFFFF"></path><path d="M107.7 0L0 0L99.7 55Z" fill="#4c0d49" stroke="#FFFFFF"></path></g></svg>